<svg id="Layer_1" data-name="Layer 1" xmlns="http://www.w3.org/2000/svg" viewBox="0 0 500.03 500.03"><defs><style>.cls-1{fill:#39567f;}</style></defs><title>pattern</title><g id="_Group_" data-name="&lt;Group&gt;"><path id="_Compound_Path_" data-name="&lt;Compound Path&gt;" class="cls-1" d="M65.85,55.47s0,0,0,0l0-.09,0,0a.41.41,0,0,0-.05-.09s0,0,0,0l-.09-.11,0,0L65.53,55l0,0,0,0L59.52,52V25.62a.78.78,0,0,0-.78-.78H24.4a.78.78,0,0,0-.78.78V52L17.9,54.9l0,0,0,0-.08.07,0,0-.09.1v0l-.06.11v0a.32.32,0,0,0,0,.09.11.11,0,0,0,0,0,.38.38,0,0,0,0,.1v2.15a.77.77,0,0,0,.78.78H65.08a.78.78,0,0,0,.78-.78V55.57S65.85,55.5,65.85,55.47ZM21.5,54.82l3.09-1.57h34l3.18,1.57ZM25.18,26.4H58V51.68H25.18ZM64.3,56.94H19v-.56H64.3Z"/><path id="_Compound_Path_2" data-name="&lt;Compound Path&gt;" class="cls-1" d="M54.62,28.06H28.53a.78.78,0,0,0-.78.78V46.43a.78.78,0,0,0,.78.78H54.62a.78.78,0,0,0,.78-.78V28.84A.78.78,0,0,0,54.62,28.06Zm-.78,17.59H29.31v-16H53.84Z"/><path id="_Compound_Path_3" data-name="&lt;Compound Path&gt;" class="cls-1" d="M41.89,47.65a1.68,1.68,0,1,0,1.67,1.68A1.68,1.68,0,0,0,41.89,47.65Zm0,2.42a.74.74,0,1,1,.74-.74A.75.75,0,0,1,41.89,50.07Z"/></g><g id="_Group_2" data-name="&lt;Group&gt;"><path id="_Compound_Path_4" data-name="&lt;Compound Path&gt;" class="cls-1" d="M482.54,305.48a.07.07,0,0,1,0-.05l0-.08s0,0,0-.06a.22.22,0,0,0-.05-.08.05.05,0,0,0,0,0,.44.44,0,0,0-.09-.11l0,0-.08-.07-.05,0-.05,0L476.21,302V275.63a.78.78,0,0,0-.78-.78H441.09a.78.78,0,0,0-.78.78V302l-5.72,2.92,0,0-.05,0-.07.06,0,0a.31.31,0,0,0-.09.11h0l-.06.11s0,0,0,.05a.19.19,0,0,0,0,.08.13.13,0,0,0,0,.06.28.28,0,0,0,0,.09v2.15a.78.78,0,0,0,.78.78h46.83a.78.78,0,0,0,.78-.78v-2.15S482.54,305.52,482.54,305.48Zm-44.35-.65,3.09-1.57h34l3.18,1.57Zm3.68-28.42h32.78V301.7H441.87ZM481,307H435.72v-.56H481Z"/><path id="_Compound_Path_5" data-name="&lt;Compound Path&gt;" class="cls-1" d="M471.31,278.08H445.22a.78.78,0,0,0-.78.78v17.58a.78.78,0,0,0,.78.78h26.09a.78.78,0,0,0,.78-.78V278.86A.78.78,0,0,0,471.31,278.08Zm-.78,17.58H446v-16h24.53Z"/><path id="_Compound_Path_6" data-name="&lt;Compound Path&gt;" class="cls-1" d="M458.57,297.67a1.68,1.68,0,1,0,1.68,1.67A1.67,1.67,0,0,0,458.57,297.67Zm0,2.41a.74.74,0,1,1,.75-.74A.74.74,0,0,1,458.57,300.08Z"/></g><g id="_Group_3" data-name="&lt;Group&gt;"><path id="_Compound_Path_7" data-name="&lt;Compound Path&gt;" class="cls-1" d="M291.85,127.44a.81.81,0,0,0-.59.13.77.77,0,0,0-.33.49l-.65,3.45a.78.78,0,0,0,.62.92l1.33.25a9.25,9.25,0,0,0,.44,2.14l-1.12.76a.79.79,0,0,0-.21,1.09l2,2.9a.77.77,0,0,0,.49.33.81.81,0,0,0,.59-.12l1.12-.77a8.93,8.93,0,0,0,1.83,1.21l-.25,1.33a.77.77,0,0,0,.62.91l3.44.66h.15a.79.79,0,0,0,.77-.63l.25-1.33a9.82,9.82,0,0,0,2.14-.45l.76,1.12a.81.81,0,0,0,.5.33.76.76,0,0,0,.59-.12l2.9-2a.79.79,0,0,0,.21-1.09l-.77-1.12a8.93,8.93,0,0,0,1.21-1.83l1.33.26a.78.78,0,0,0,.91-.62l.66-3.45a.79.79,0,0,0-.12-.58.77.77,0,0,0-.5-.33l-1.33-.26a9.38,9.38,0,0,0-.45-2.14l1.12-.76a.78.78,0,0,0,.21-1.08l-2-2.91a.81.81,0,0,0-.5-.33.83.83,0,0,0-.59.13l-1.12.76a9.1,9.1,0,0,0-1.82-1.2l.25-1.33a.79.79,0,0,0-.62-.92l-3.45-.66a.8.8,0,0,0-.58.13.73.73,0,0,0-.33.5l-.26,1.33a9.36,9.36,0,0,0-2.14.44l-.76-1.12a.81.81,0,0,0-.5-.33.79.79,0,0,0-.58.12l-2.91,2a.72.72,0,0,0-.32.49.76.76,0,0,0,.12.59l.76,1.12a8.89,8.89,0,0,0-1.2,1.83Zm2.5,1.44a7.64,7.64,0,0,1,1.58-2.4.77.77,0,0,0,.08-1l-.66-1,1.61-1.1.67,1a.77.77,0,0,0,.94.29,7.77,7.77,0,0,1,2.81-.59.77.77,0,0,0,.75-.63l.23-1.17,1.91.37-.22,1.17a.77.77,0,0,0,.46.86,7.53,7.53,0,0,1,2.4,1.58.77.77,0,0,0,1,.08l1-.66,1.09,1.61-1,.67a.76.76,0,0,0-.28.94,7.76,7.76,0,0,1,.58,2.81.78.78,0,0,0,.63.75l1.17.22-.37,1.92-1.16-.22a.78.78,0,0,0-.87.46,7.64,7.64,0,0,1-1.58,2.4.79.79,0,0,0-.08,1l.67,1-1.61,1.09-.67-1a.79.79,0,0,0-.95-.29,7.52,7.52,0,0,1-2.81.59.78.78,0,0,0-.75.63l-.22,1.17-1.92-.37.23-1.16a.78.78,0,0,0-.47-.87,7.64,7.64,0,0,1-2.4-1.58.78.78,0,0,0-1-.08l-1,.67-1.1-1.62,1-.66a.79.79,0,0,0,.28-1,7.77,7.77,0,0,1-.59-2.81.77.77,0,0,0-.63-.75L292,131l.37-1.92,1.17.23A.78.78,0,0,0,294.35,128.88Z"/><path id="_Compound_Path_8" data-name="&lt;Compound Path&gt;" class="cls-1" d="M300.47,137.38h0a5.41,5.41,0,0,0,1,.1,5.62,5.62,0,1,0-1-.1Zm-2.92-6.27a4,4,0,0,1,4-3.29,5,5,0,0,1,.77.07,4.05,4.05,0,1,1-1.52,8h0a4,4,0,0,1-3.21-4.74Z"/><path id="_Compound_Path_9" data-name="&lt;Compound Path&gt;" class="cls-1" d="M271.09,121.46a.78.78,0,0,0,.88.66l1.34-.19a9.72,9.72,0,0,0,1.12,1.88l-.81,1.08a.78.78,0,0,0,.15,1.09l2.81,2.11a.77.77,0,0,0,1.09-.16l.82-1.08a9.56,9.56,0,0,0,2.12.54l.19,1.34a.79.79,0,0,0,.3.51.81.81,0,0,0,.47.16h.11l3.48-.5a.78.78,0,0,0,.66-.88l-.19-1.34a9.72,9.72,0,0,0,1.88-1.12l1.08.81a.78.78,0,0,0,1.09-.15l2.11-2.81a.77.77,0,0,0-.16-1.09l-1.08-.82a9.56,9.56,0,0,0,.54-2.12l1.34-.19a.79.79,0,0,0,.51-.3.77.77,0,0,0,.15-.58l-.5-3.48a.78.78,0,0,0-.88-.66l-1.34.19a9.72,9.72,0,0,0-1.12-1.88l.81-1.08a.78.78,0,0,0-.15-1.09l-2.81-2.11a.81.81,0,0,0-.58-.15.74.74,0,0,0-.51.31l-.82,1.08a9.56,9.56,0,0,0-2.12-.54l-.19-1.34a.77.77,0,0,0-.88-.66l-3.48.5a.79.79,0,0,0-.51.3.81.81,0,0,0-.15.58l.19,1.34a9.72,9.72,0,0,0-1.88,1.12l-1.08-.81a.76.76,0,0,0-.58-.15.77.77,0,0,0-.51.3l-2.11,2.81a.81.81,0,0,0-.15.58.74.74,0,0,0,.31.51l1.09.82a9.06,9.06,0,0,0-.55,2.12l-1.34.19a.79.79,0,0,0-.51.3.77.77,0,0,0-.15.58Zm4.64-9.11a.78.78,0,0,0,1,0,7.57,7.57,0,0,1,2.47-1.47.78.78,0,0,0,.51-.84l-.17-1.18,1.93-.28.17,1.18a.78.78,0,0,0,.72.67,7.71,7.71,0,0,1,2.78.71.77.77,0,0,0,.95-.24l.72-1,1.56,1.17-.72,1a.78.78,0,0,0,0,1,7.57,7.57,0,0,1,1.47,2.47.78.78,0,0,0,.84.51l1.18-.17.28,1.93-1.18.17a.79.79,0,0,0-.67.72,7.71,7.71,0,0,1-.71,2.78.77.77,0,0,0,.24,1l.95.72-1.17,1.56-.95-.72a.78.78,0,0,0-1,0,7.57,7.57,0,0,1-2.47,1.47.78.78,0,0,0-.51.84l.17,1.18-1.93.28-.17-1.18a.78.78,0,0,0-.72-.67,7.71,7.71,0,0,1-2.78-.71.78.78,0,0,0-.33-.07.77.77,0,0,0-.62.31l-.72,1-1.56-1.17.72-1a.78.78,0,0,0,0-1,7.57,7.57,0,0,1-1.47-2.47.78.78,0,0,0-.84-.51l-1.18.17-.28-1.93,1.18-.17a.79.79,0,0,0,.67-.72,7.71,7.71,0,0,1,.71-2.78.77.77,0,0,0-.24-1l-.95-.72,1.17-1.56Z"/><path id="_Compound_Path_10" data-name="&lt;Compound Path&gt;" class="cls-1" d="M281.84,123.75a5.49,5.49,0,0,0,.8-.06,5.59,5.59,0,1,0-.8.06Zm4-6.19a4.05,4.05,0,1,1-4.59-3.43,3.86,3.86,0,0,1,.58,0A4.06,4.06,0,0,1,285.85,117.56Z"/></g><g id="_Group_4" data-name="&lt;Group&gt;"><path id="_Compound_Path_11" data-name="&lt;Compound Path&gt;" class="cls-1" d="M441.19,136.6h34.34a.78.78,0,0,0,.78-.78V109a.78.78,0,0,0-.78-.78H441.19a.78.78,0,0,0-.78.78v26.85A.78.78,0,0,0,441.19,136.6Zm.78-26.85h32.78V135H442Z"/><path id="_Compound_Path_12" data-name="&lt;Compound Path&gt;" class="cls-1" d="M471.4,111.42H445.31a.78.78,0,0,0-.78.78v17.58a.78.78,0,0,0,.78.78H471.4a.78.78,0,0,0,.78-.78V112.2A.78.78,0,0,0,471.4,111.42ZM470.62,129H446.09V113h24.53Z"/><path id="_Compound_Path_13" data-name="&lt;Compound Path&gt;" class="cls-1" d="M458.36,131.17a1.68,1.68,0,1,0,1.67,1.68A1.68,1.68,0,0,0,458.36,131.17Zm0,2.42a.74.74,0,1,1,.74-.74A.74.74,0,0,1,458.36,133.59Z"/><path id="_Compound_Path_14" data-name="&lt;Compound Path&gt;" class="cls-1" d="M467.37,141.82a.78.78,0,0,0,.78-.78v-2.72a.78.78,0,0,0-.78-.79h-18a.78.78,0,0,0-.78.79V141a.78.78,0,0,0,.78.78Zm-17.25-2.72h16.47v1.16H450.12Z"/></g><g id="_Group_5" data-name="&lt;Group&gt;"><path id="_Compound_Path_15" data-name="&lt;Compound Path&gt;" class="cls-1" d="M116.09,141.87h17.84a4.18,4.18,0,0,0,4.18-4.18V126.27a4.19,4.19,0,0,0-3.63-4.14v-4.52a9.47,9.47,0,1,0-18.94,0v4.52a4.18,4.18,0,0,0-3.63,4.14v11.42A4.18,4.18,0,0,0,116.09,141.87Zm-2.62-15.6a2.62,2.62,0,0,1,2.62-2.62h17.84a2.62,2.62,0,0,1,2.62,2.62v11.42a2.62,2.62,0,0,1-2.62,2.62H116.09a2.62,2.62,0,0,1-2.62-2.62ZM125,109.7a7.91,7.91,0,0,1,7.9,7.91v4.48h-1.24v-4.48a6.66,6.66,0,1,0-13.32,0v4.48H117.1v-4.48A7.92,7.92,0,0,1,125,109.7Zm5.1,12.39h-10.2v-4.48a5.1,5.1,0,0,1,10.2,0Z"/><path id="_Compound_Path_16" data-name="&lt;Compound Path&gt;" class="cls-1" d="M123.45,136.21h3.11a.63.63,0,0,0,.63-.62v-7.22a.63.63,0,0,0-.63-.63h-3.11a.63.63,0,0,0-.63.63v7.22A.63.63,0,0,0,123.45,136.21Zm.62-7.22h1.87v6h-1.87Z"/></g><g id="_Group_6" data-name="&lt;Group&gt;"><path id="_Compound_Path_17" data-name="&lt;Compound Path&gt;" class="cls-1" d="M291.85,462.72a.81.81,0,0,0-.59.13.76.76,0,0,0-.33.5l-.65,3.44a.78.78,0,0,0,.62.92l1.33.25a9.25,9.25,0,0,0,.44,2.14l-1.12.76a.79.79,0,0,0-.21,1.09l2,2.9a.77.77,0,0,0,.49.33.81.81,0,0,0,.59-.12l1.12-.77a8.93,8.93,0,0,0,1.83,1.21l-.25,1.33a.77.77,0,0,0,.62.91l3.44.66h.15a.79.79,0,0,0,.77-.63l.25-1.33a9.27,9.27,0,0,0,2.14-.45l.76,1.12a.77.77,0,0,0,.5.33.76.76,0,0,0,.59-.12l2.9-2a.79.79,0,0,0,.21-1.09l-.77-1.12a9.14,9.14,0,0,0,1.21-1.82l1.33.25a.78.78,0,0,0,.91-.62l.66-3.45a.79.79,0,0,0-.12-.58.77.77,0,0,0-.5-.33l-1.33-.26a9.38,9.38,0,0,0-.45-2.14l1.12-.76a.78.78,0,0,0,.21-1.08l-2-2.91a.76.76,0,0,0-.5-.32.78.78,0,0,0-.59.12l-1.12.76a9.1,9.1,0,0,0-1.82-1.2l.25-1.33a.79.79,0,0,0-.62-.92l-3.45-.65a.75.75,0,0,0-.58.12.73.73,0,0,0-.33.5l-.26,1.33a9.36,9.36,0,0,0-2.14.44l-.76-1.12a.81.81,0,0,0-.5-.33.79.79,0,0,0-.58.12l-2.91,2a.72.72,0,0,0-.32.49.76.76,0,0,0,.12.59l.76,1.12a8.89,8.89,0,0,0-1.2,1.83Zm2.5,1.44a7.64,7.64,0,0,1,1.58-2.4.77.77,0,0,0,.08-1l-.66-1,1.61-1.1.67,1a.78.78,0,0,0,.94.28,7.77,7.77,0,0,1,2.81-.59.77.77,0,0,0,.75-.63l.23-1.17,1.91.37-.22,1.17a.77.77,0,0,0,.46.86,7.53,7.53,0,0,1,2.4,1.58.77.77,0,0,0,1,.08l1-.66,1.09,1.61-1,.67a.76.76,0,0,0-.28.94,7.76,7.76,0,0,1,.58,2.81.78.78,0,0,0,.63.75l1.17.22-.37,1.92-1.16-.22a.78.78,0,0,0-.87.46,7.64,7.64,0,0,1-1.58,2.4.79.79,0,0,0-.08,1l.67,1-1.61,1.09-.67-1a.79.79,0,0,0-.95-.29,7.52,7.52,0,0,1-2.81.59.78.78,0,0,0-.75.63l-.22,1.17-1.92-.37.23-1.16a.78.78,0,0,0-.47-.87,7.64,7.64,0,0,1-2.4-1.58.78.78,0,0,0-1-.08l-1,.67-1.1-1.61,1-.67a.79.79,0,0,0,.28-.95,7.77,7.77,0,0,1-.59-2.81.77.77,0,0,0-.63-.75l-1.17-.22.37-1.92,1.17.23A.78.78,0,0,0,294.35,464.16Z"/><path id="_Compound_Path_18" data-name="&lt;Compound Path&gt;" class="cls-1" d="M300.47,472.66h0a5.41,5.41,0,0,0,1,.1,5.62,5.62,0,1,0-1-.1Zm-2.92-6.27a4,4,0,0,1,4.73-3.21,4,4,0,1,1-1.52,7.95h0a4,4,0,0,1-3.21-4.74Z"/><path id="_Compound_Path_19" data-name="&lt;Compound Path&gt;" class="cls-1" d="M271.09,456.74a.78.78,0,0,0,.88.66l1.34-.19a9.72,9.72,0,0,0,1.12,1.88l-.81,1.08a.78.78,0,0,0,.15,1.09l2.81,2.11a.77.77,0,0,0,1.09-.16l.82-1.08a9.56,9.56,0,0,0,2.12.54l.19,1.34a.79.79,0,0,0,.3.51.74.74,0,0,0,.47.16h.11l3.48-.5a.78.78,0,0,0,.66-.88l-.19-1.34a9.72,9.72,0,0,0,1.88-1.12l1.08.81a.78.78,0,0,0,1.09-.15l2.11-2.81a.77.77,0,0,0-.16-1.09l-1.08-.82a9.56,9.56,0,0,0,.54-2.12l1.34-.19a.79.79,0,0,0,.51-.3.77.77,0,0,0,.15-.58l-.5-3.48a.78.78,0,0,0-.88-.66l-1.34.19a9.72,9.72,0,0,0-1.12-1.88l.81-1.08a.77.77,0,0,0,.15-.58.79.79,0,0,0-.3-.51l-2.81-2.11a.81.81,0,0,0-.58-.15.74.74,0,0,0-.51.31l-.82,1.09a9.06,9.06,0,0,0-2.12-.55l-.19-1.34a.77.77,0,0,0-.88-.66l-3.48.5a.79.79,0,0,0-.51.3.81.81,0,0,0-.15.58l.19,1.34a9.72,9.72,0,0,0-1.88,1.12l-1.08-.81a.76.76,0,0,0-.58-.15.77.77,0,0,0-.51.3l-2.11,2.81a.81.81,0,0,0-.15.58.79.79,0,0,0,.31.52l1.09.81a9.06,9.06,0,0,0-.55,2.12l-1.34.19a.79.79,0,0,0-.51.3.77.77,0,0,0-.15.58Zm4.64-9.11a.78.78,0,0,0,1,0,7.57,7.57,0,0,1,2.47-1.47.78.78,0,0,0,.51-.84l-.17-1.18,1.93-.27.17,1.17a.78.78,0,0,0,.72.67,7.71,7.71,0,0,1,2.78.71.77.77,0,0,0,.95-.24l.72-.95,1.56,1.17-.72.95a.78.78,0,0,0,0,1,7.57,7.57,0,0,1,1.47,2.47.78.78,0,0,0,.84.51l1.18-.17.28,1.93-1.18.17a.79.79,0,0,0-.67.72,7.71,7.71,0,0,1-.71,2.78.77.77,0,0,0,.24.95l.95.72-1.17,1.56-.95-.72a.78.78,0,0,0-1,0,7.57,7.57,0,0,1-2.47,1.47.78.78,0,0,0-.51.84l.17,1.18-1.93.28-.17-1.18a.79.79,0,0,0-.72-.67,7.71,7.71,0,0,1-2.78-.71.78.78,0,0,0-.33-.07.77.77,0,0,0-.62.31l-.72.95-1.56-1.17.72-1a.78.78,0,0,0,0-1,7.57,7.57,0,0,1-1.47-2.47.78.78,0,0,0-.84-.51l-1.18.17-.28-1.93,1.18-.17a.79.79,0,0,0,.67-.72,7.71,7.71,0,0,1,.71-2.78.77.77,0,0,0-.24-.95l-.95-.72,1.17-1.56Z"/><path id="_Compound_Path_20" data-name="&lt;Compound Path&gt;" class="cls-1" d="M281.84,459a5.49,5.49,0,0,0,.8-.06,5.59,5.59,0,1,0-.8.06Zm4-6.18a4.05,4.05,0,1,1-4.59-3.44c.2,0,.39,0,.58,0A4.06,4.06,0,0,1,285.85,452.85Z"/></g><g id="_Group_7" data-name="&lt;Group&gt;"><path id="_Compound_Path_21" data-name="&lt;Compound Path&gt;" class="cls-1" d="M441.19,471.88h34.34a.78.78,0,0,0,.78-.78V444.25a.78.78,0,0,0-.78-.78H441.19a.78.78,0,0,0-.78.78V471.1A.78.78,0,0,0,441.19,471.88ZM442,445h32.78v25.29H442Z"/><path id="_Compound_Path_22" data-name="&lt;Compound Path&gt;" class="cls-1" d="M471.4,446.7H445.31a.78.78,0,0,0-.78.78v17.58a.78.78,0,0,0,.78.78H471.4a.78.78,0,0,0,.78-.78V447.48A.78.78,0,0,0,471.4,446.7Zm-.78,17.58H446.09v-16h24.53Z"/><path id="_Compound_Path_23" data-name="&lt;Compound Path&gt;" class="cls-1" d="M458.36,466.45a1.68,1.68,0,1,0,1.67,1.68A1.68,1.68,0,0,0,458.36,466.45Zm0,2.42a.74.74,0,1,1,.74-.74A.74.74,0,0,1,458.36,468.87Z"/><path id="_Compound_Path_24" data-name="&lt;Compound Path&gt;" class="cls-1" d="M467.37,477.1a.78.78,0,0,0,.78-.78V473.6a.78.78,0,0,0-.78-.79h-18a.78.78,0,0,0-.78.79v2.72a.78.78,0,0,0,.78.78Zm-17.25-2.72h16.47v1.16H450.12Z"/></g><g id="_Group_8" data-name="&lt;Group&gt;"><path id="_Compound_Path_25" data-name="&lt;Compound Path&gt;" class="cls-1" d="M116.09,477.15h17.84a4.18,4.18,0,0,0,4.18-4.18V461.55a4.19,4.19,0,0,0-3.63-4.14v-4.52a9.47,9.47,0,1,0-18.94,0v4.52a4.18,4.18,0,0,0-3.63,4.14V473A4.18,4.18,0,0,0,116.09,477.15Zm-2.62-15.6a2.62,2.62,0,0,1,2.62-2.62h17.84a2.62,2.62,0,0,1,2.62,2.62V473a2.62,2.62,0,0,1-2.62,2.62H116.09a2.62,2.62,0,0,1-2.62-2.62ZM125,445a7.91,7.91,0,0,1,7.9,7.91v4.48h-1.24v-4.48a6.66,6.66,0,1,0-13.32,0v4.48H117.1v-4.48A7.92,7.92,0,0,1,125,445Zm5.1,12.39h-10.2v-4.48a5.1,5.1,0,0,1,10.2,0Z"/><path id="_Compound_Path_26" data-name="&lt;Compound Path&gt;" class="cls-1" d="M123.45,471.49h3.11a.63.63,0,0,0,.63-.62v-7.22a.63.63,0,0,0-.63-.63h-3.11a.63.63,0,0,0-.63.63v7.22A.63.63,0,0,0,123.45,471.49Zm.62-7.22h1.87v6h-1.87Z"/></g><g id="_Group_9" data-name="&lt;Group&gt;"><path id="_Compound_Path_27" data-name="&lt;Compound Path&gt;" class="cls-1" d="M40.81,200.59l-2.61-4.07a.77.77,0,0,0-.65-.35H26.23a.77.77,0,0,0-.78.78v22.79a.77.77,0,0,0,.78.78H53.48a.78.78,0,0,0,.78-.78V210a5.46,5.46,0,1,0-5.21-9.42Zm15.83,4.28a4.21,4.21,0,1,1-4.21-4.21A4.22,4.22,0,0,1,56.64,204.87ZM27,219V197.73H37.12l2.61,4.06a.77.77,0,0,0,.66.36H47.7a5.45,5.45,0,0,0,4.73,8.18h.27V219Z"/><path id="_Path_" data-name="&lt;Path&gt;" class="cls-1" d="M51.37,206.08l-.67-.78a.47.47,0,0,0-.66-.05.48.48,0,0,0,0,.66l1,1.14a.47.47,0,0,0,.33.17h0a.47.47,0,0,0,.31-.12l3.67-3.26a.47.47,0,1,0-.63-.7Z"/></g><g id="_Group_10" data-name="&lt;Group&gt;"><path id="_Compound_Path_28" data-name="&lt;Compound Path&gt;" class="cls-1" d="M356.57,48.41h5.69A13.24,13.24,0,0,0,388,47.7a.78.78,0,0,0-.77-.94h-3.92a.78.78,0,0,0-.75.54A7.88,7.88,0,0,1,368,48.41h5.67a.78.78,0,0,0,.55-1.33l-8.53-8.53a.8.8,0,0,0-1.11,0L356,47.08a.78.78,0,0,0,.55,1.33Zm15.18-1.56h-4.94a.77.77,0,0,0-.63.33.79.79,0,0,0-.11.7,9.44,9.44,0,0,0,17.77.44h2.37a11.68,11.68,0,0,1-22.58-.86.78.78,0,0,0-.76-.61h-4.42l6.65-6.65Z"/><path id="_Compound_Path_29" data-name="&lt;Compound Path&gt;" class="cls-1" d="M362.82,36.58h3.93a.79.79,0,0,0,.75-.54,7.87,7.87,0,0,1,14.56-1.12H376.4a.79.79,0,0,0-.55,1.34l8.53,8.53a.78.78,0,0,0,1.11,0L394,36.26a.79.79,0,0,0-.55-1.34h-5.69a13.24,13.24,0,0,0-25.72.72.78.78,0,0,0,.76.94ZM375,26.74a11.76,11.76,0,0,1,11.4,9.13.76.76,0,0,0,.76.61h4.42l-6.65,6.66-6.66-6.66h4.94a.79.79,0,0,0,.64-.32.82.82,0,0,0,.11-.7A9.44,9.44,0,0,0,366.2,35h-2.37A11.75,11.75,0,0,1,375,26.74Z"/></g><g id="_Group_11" data-name="&lt;Group&gt;"><path id="_Compound_Path_30" data-name="&lt;Compound Path&gt;" class="cls-1" d="M193.87,216v6.82a1.08,1.08,0,0,0,1.08,1.08h26.79a1.08,1.08,0,0,0,1.08-1.08V216a1.08,1.08,0,0,0-1.08-1.08H219.1A1.09,1.09,0,0,0,218,216v3.1H198.66V216a1.08,1.08,0,0,0-1.08-1.08H195A1.08,1.08,0,0,0,193.87,216Zm1.3.23h2.19v3.52a.65.65,0,0,0,.65.65h20.67a.65.65,0,0,0,.65-.65v-3.52h2.19v6.37H195.17Z"/><path id="_Compound_Path_31" data-name="&lt;Compound Path&gt;" class="cls-1" d="M204.21,197.32h8.27a1.15,1.15,0,0,0,1.15-1.15v-2.25a1.14,1.14,0,0,0-1.15-1.15h-8.27a1.14,1.14,0,0,0-1.15,1.15v2.25A1.15,1.15,0,0,0,204.21,197.32Zm.15-3.25h8V196h-8Z"/><path id="_Compound_Path_32" data-name="&lt;Compound Path&gt;" class="cls-1" d="M203,203.51h-4.23a1.66,1.66,0,0,0-1.54.85,1.14,1.14,0,0,0,.19,1.24l4.79,5.61h0l4.79,5.62a1.74,1.74,0,0,0,1.35.56h0a1.76,1.76,0,0,0,1.36-.56l9.58-11.23a1.14,1.14,0,0,0,.19-1.24,1.67,1.67,0,0,0-1.54-.85h-4.37v-4a1.08,1.08,0,0,0-1.08-1.08h-8.41a1.08,1.08,0,0,0-1.08,1.08Zm.65,1.31a.66.66,0,0,0,.65-.66v-4.41h8v4.41a.66.66,0,0,0,.65.66h5a.83.83,0,0,1,.26,0L208.71,216a.53.53,0,0,1-.37.11h0A.52.52,0,0,1,208,216l-4.79-5.62h0l-4.7-5.5a1,1,0,0,1,.27,0Z"/></g><path id="_Compound_Path_33" data-name="&lt;Compound Path&gt;" class="cls-1" d="M141.26,296.18a6.67,6.67,0,0,0-6.82-6.49,6.23,6.23,0,0,0-.74,0c0-.2,0-.39,0-.58a8.46,8.46,0,0,0-16.89-.69,7.42,7.42,0,0,0-.94-.06,7.14,7.14,0,0,0,0,14.27H123a.63.63,0,0,0,.47-.2.68.68,0,0,0,.18-.49h0v-5.32A.65.65,0,0,0,123,296h-.92l2.85-3.5c.06-.08.13-.08.2,0L128,296H127a.66.66,0,0,0-.66.65V302a.65.65,0,0,0,.65.65h7.45A6.67,6.67,0,0,0,141.26,296.18Zm-6.79,5.18h-6.78v-4.06h.61a1.16,1.16,0,0,0,1.14-.61,1.12,1.12,0,0,0-.22-1.21l-3.1-3.81a1.43,1.43,0,0,0-1.11-.55,1.45,1.45,0,0,0-1.12.55l-3.09,3.81a1.08,1.08,0,0,0-.22,1.21,1.15,1.15,0,0,0,1.13.61h.61v4.06h-6.46a5.83,5.83,0,0,1,0-11.66,6.81,6.81,0,0,1,.78.05l.67.09a.65.65,0,0,0,.49-.14.66.66,0,0,0,.25-.45l0-.68a7.16,7.16,0,0,1,14.29.58c0,.16,0,.33,0,.5l-.05.76a.64.64,0,0,0,.19.51.63.63,0,0,0,.52.18l.77-.08c.2,0,.41,0,.61,0a5.19,5.19,0,1,1,0,10.37Z"/><g id="_Group_12" data-name="&lt;Group&gt;"><path id="_Compound_Path_34" data-name="&lt;Compound Path&gt;" class="cls-1" d="M219,57.93a.78.78,0,0,0,.5-.17l3.17-2.58a.77.77,0,0,0,.28-.52.8.8,0,0,0-.17-.58l-8-9.81a11.74,11.74,0,0,0-.23-14.53,11.76,11.76,0,1,0-10.34,19.11,10.14,10.14,0,0,0,1.23.07,11.69,11.69,0,0,0,4.95-1.1l8,9.82A.77.77,0,0,0,219,57.93ZM204.42,47.3a10.2,10.2,0,1,1,7.48-2.23A10.11,10.11,0,0,1,204.42,47.3Zm8.46-1a10.1,10.1,0,0,0,.91-.81l7.31,9-2,1.59-7.32-9A9.86,9.86,0,0,0,212.88,46.28Z"/><path id="_Compound_Path_35" data-name="&lt;Compound Path&gt;" class="cls-1" d="M212.15,31.73a8.6,8.6,0,1,0-1.25,12.11A8.54,8.54,0,0,0,212.15,31.73Zm-2.24,10.9a7,7,0,1,1-4.45-12.52,6.23,6.23,0,0,1,.74,0,7,7,0,0,1,4.74,2.56A7.06,7.06,0,0,1,209.91,42.63Z"/></g><g id="_Group_13" data-name="&lt;Group&gt;"><path id="_Compound_Path_36" data-name="&lt;Compound Path&gt;" class="cls-1" d="M385.7,224.61a.76.76,0,0,0,.49-.18l3.17-2.57a.78.78,0,0,0,.29-.53.78.78,0,0,0-.17-.57l-8-9.81a11.77,11.77,0,0,0-.24-14.53,11.77,11.77,0,0,0-16.54-1.71,11.76,11.76,0,0,0,6.2,20.82c.42,0,.83.06,1.24.06a11.5,11.5,0,0,0,4.94-1.1l8,9.83A.79.79,0,0,0,385.7,224.61ZM371.1,214a10.19,10.19,0,1,1,7.48-2.23A10.13,10.13,0,0,1,371.1,214Zm8.46-1a11.81,11.81,0,0,0,.91-.82l7.3,9-2,1.59-7.31-9A13,13,0,0,0,379.56,213Z"/><path id="_Compound_Path_37" data-name="&lt;Compound Path&gt;" class="cls-1" d="M378.83,198.41a8.61,8.61,0,1,0-1.26,12.1A8.56,8.56,0,0,0,378.83,198.41Zm-2.24,10.89a7.06,7.06,0,0,1-9.91-1,7,7,0,0,1,5.45-11.49c.25,0,.49,0,.74,0a7,7,0,0,1,3.72,12.48Z"/></g><g id="_Group_14" data-name="&lt;Group&gt;"><path id="_Compound_Path_38" data-name="&lt;Compound Path&gt;" class="cls-1" d="M40.81,354.53l-2.61-4.07a.78.78,0,0,0-.65-.36H26.23a.77.77,0,0,0-.78.78v22.8a.77.77,0,0,0,.78.78H53.48a.78.78,0,0,0,.78-.78V364a5.46,5.46,0,1,0-5.21-9.42Zm15.83,4.28a4.21,4.21,0,1,1-4.21-4.21A4.22,4.22,0,0,1,56.64,358.81ZM27,372.9V351.67H37.12l2.61,4.06a.77.77,0,0,0,.66.36H47.7a5.45,5.45,0,0,0,4.73,8.18h.27v8.64Z"/><path id="_Path_2" data-name="&lt;Path&gt;" class="cls-1" d="M51.37,360l-.67-.78a.47.47,0,0,0-.66-.05.48.48,0,0,0,0,.66L51,361a.47.47,0,0,0,.33.17h0a.52.52,0,0,0,.31-.12l3.67-3.26a.47.47,0,0,0,0-.66.47.47,0,0,0-.67,0Z"/></g><g id="_Group_15" data-name="&lt;Group&gt;"><path id="_Compound_Path_39" data-name="&lt;Compound Path&gt;" class="cls-1" d="M193.87,370v6.82a1.08,1.08,0,0,0,1.08,1.08h26.79a1.08,1.08,0,0,0,1.08-1.08V370a1.08,1.08,0,0,0-1.08-1.08H219.1A1.08,1.08,0,0,0,218,370v3.1H198.66V370a1.08,1.08,0,0,0-1.08-1.08H195A1.08,1.08,0,0,0,193.87,370Zm1.3.22h2.19v3.53a.65.65,0,0,0,.65.65h20.67a.65.65,0,0,0,.65-.65v-3.53h2.19v6.38H195.17Z"/><path id="_Compound_Path_40" data-name="&lt;Compound Path&gt;" class="cls-1" d="M204.21,351.26h8.27a1.15,1.15,0,0,0,1.15-1.15v-2.25a1.15,1.15,0,0,0-1.15-1.16h-8.27a1.15,1.15,0,0,0-1.15,1.16v2.25A1.15,1.15,0,0,0,204.21,351.26Zm.15-3.25h8V350h-8Z"/><path id="_Compound_Path_41" data-name="&lt;Compound Path&gt;" class="cls-1" d="M203,357.45h-4.23a1.64,1.64,0,0,0-1.54.85,1.12,1.12,0,0,0,.19,1.23l4.79,5.62h0l4.79,5.62a1.77,1.77,0,0,0,1.35.56h0a1.8,1.8,0,0,0,1.36-.56l9.58-11.24a1.12,1.12,0,0,0,.19-1.23,1.65,1.65,0,0,0-1.54-.85h-4.37v-4a1.09,1.09,0,0,0-1.08-1.08h-8.41a1.08,1.08,0,0,0-1.08,1.08Zm.65,1.3a.65.65,0,0,0,.65-.65v-4.41h8v4.41a.65.65,0,0,0,.65.65h5a.8.8,0,0,1,.26.05l-9.48,11.12a.59.59,0,0,1-.37.11h0a.58.58,0,0,1-.36-.11l-4.79-5.62h0l-4.7-5.5a.93.93,0,0,1,.27-.05Z"/></g><g id="_Group_16" data-name="&lt;Group&gt;"><path id="_Compound_Path_42" data-name="&lt;Compound Path&gt;" class="cls-1" d="M385.7,378.55a.76.76,0,0,0,.49-.18l3.17-2.58a.76.76,0,0,0,.29-.52.78.78,0,0,0-.17-.57l-8-9.81a11.77,11.77,0,0,0-.24-14.53,11.76,11.76,0,1,0-10.34,19.11c.42,0,.83.06,1.24.06a11.65,11.65,0,0,0,4.94-1.1l8,9.83A.79.79,0,0,0,385.7,378.55Zm-14.6-10.64a10.18,10.18,0,1,1,7.48-2.22A10.12,10.12,0,0,1,371.1,367.91Zm8.46-1a11.81,11.81,0,0,0,.91-.82l7.3,9-2,1.59-7.31-9A10.85,10.85,0,0,0,379.56,366.9Z"/><path id="_Compound_Path_43" data-name="&lt;Compound Path&gt;" class="cls-1" d="M378.83,352.34a8.62,8.62,0,1,0-1.26,12.11A8.58,8.58,0,0,0,378.83,352.34Zm-2.24,10.9a7,7,0,0,1-9.91-1,7,7,0,0,1,5.45-11.49c.25,0,.49,0,.74,0a7,7,0,0,1,3.72,12.48Z"/></g><g id="_Group_17" data-name="&lt;Group&gt;"><path id="_Compound_Path_44" data-name="&lt;Compound Path&gt;" class="cls-1" d="M290.81,307.87h1.56a16.21,16.21,0,0,0,0-32.39h-1.56a16.21,16.21,0,0,0,0,32.37ZM281,302.16a18.77,18.77,0,0,1,3.32-1.9,19.34,19.34,0,0,0,4.62,6.13A15.06,15.06,0,0,1,281,302.16Zm10,4.33a18.39,18.39,0,0,1-5.55-6.7,18.37,18.37,0,0,1,5.55-1.1Zm0-9.06a20.09,20.09,0,0,0-6.06,1.21,18.45,18.45,0,0,1-1.29-5.8h7.35Zm0-5.84h-7.39a18.75,18.75,0,0,1,1-6,19.52,19.52,0,0,0,6.38,1.36Zm3.13,14.84A19.27,19.27,0,0,0,299,300a18.64,18.64,0,0,1,3.57,1.94A14.91,14.91,0,0,1,294.19,306.43Zm9.17-5.41a19.27,19.27,0,0,0-3.91-2.14,19.64,19.64,0,0,0,1.29-6.05h5.85A14.83,14.83,0,0,1,303.36,301Zm.47-18a14.77,14.77,0,0,1,2.81,8.61h-5.86a20,20,0,0,0-1-6.24A19.56,19.56,0,0,0,303.83,283Zm-.77-1a19,19,0,0,1-3.74,2.19,19.58,19.58,0,0,0-5.13-7.23A14.89,14.89,0,0,1,303.06,282Zm-10.75-5a18.4,18.4,0,0,1,5.84,7.62,18.74,18.74,0,0,1-5.84,1.08Zm0,9.95a19.86,19.86,0,0,0,6.28-1.15,18.79,18.79,0,0,1,.94,5.77h-7.22Zm0,5.88h7.18a18.7,18.7,0,0,1-1.22,5.6,20,20,0,0,0-6-1Zm0,5.83a18.73,18.73,0,0,1,5.47.93,18.52,18.52,0,0,1-5.47,6.76Zm-1.25-21.79v8.81a18.19,18.19,0,0,1-5.93-1.27A18.31,18.31,0,0,1,291.06,276.88Zm-2.1.1a19.52,19.52,0,0,0-5,6.94,18.33,18.33,0,0,1-3.48-2.15A14.9,14.9,0,0,1,289,277Zm-9.25,5.76a19.45,19.45,0,0,0,3.81,2.35,19.86,19.86,0,0,0-1.11,6.5h-5.69A14.75,14.75,0,0,1,279.71,282.74Zm-2.94,10.11h5.68a19.63,19.63,0,0,0,1.39,6.27,19.28,19.28,0,0,0-3.66,2.12A14.79,14.79,0,0,1,276.77,292.85Z"/></g></svg>