<svg id="Layer_1" data-name="Layer 1" xmlns="http://www.w3.org/2000/svg" viewBox="0 0 656 656"><defs><style>.cls-1{fill:#071121;}.cls-2{fill:#168aec;}.cls-3{fill:#43bcff;}.cls-4{fill:#1ca0f9;}.cls-5{fill:#1a78b7;}</style></defs><title>setra-logo</title><path class="cls-1" d="M117.5,542.64A39.73,39.73,0,0,1,116,554.38a16.92,16.92,0,0,1-4.86,7.76,20.27,20.27,0,0,1-8.77,4.29,56.32,56.32,0,0,1-13.13,1.33H27.9L29,550.59H88.1a32.08,32.08,0,0,0,5.74-.43,7.92,7.92,0,0,0,3.66-1.57,6.29,6.29,0,0,0,1.89-3,15.56,15.56,0,0,0,.57-4.58c0-3.59-.8-6.08-2.4-7.45s-4.63-2.07-9.09-2.07H53.26a52.19,52.19,0,0,1-13.06-1.39,20,20,0,0,1-8.45-4.28,16.11,16.11,0,0,1-4.61-7.3,34.32,34.32,0,0,1-1.39-10.32v-2.9a38.92,38.92,0,0,1,1.39-11.08,15.88,15.88,0,0,1,4.67-7.55,20.63,20.63,0,0,1,8.64-4.28,54.48,54.48,0,0,1,13.32-1.38H114.6q-.51,4.38-1,8.58t-1.14,8.58H53.77c-4.21,0-7.05.71-8.52,2.15S43,504.23,43,507.68s.74,5.92,2.21,7.39,4.31,2.21,8.52,2.21h34.7a59.91,59.91,0,0,1,13.63,1.32,22,22,0,0,1,9,4.1,15.63,15.63,0,0,1,4.93,7,29.61,29.61,0,0,1,1.51,9.9Z"/><path class="cls-1" d="M155.49,567.76V480.93h83.29v17.16H172.4v19.19h64.48v14H172.4v19.31h66.38v17.17Z"/><path class="cls-2" d="M305.16,567.76V498.09H273.48V480.93h80.27v17.16H322.07v69.67Z"/><path class="cls-1" d="M463.92,567.76l-30-28.4H406.5v28.4H389.33v-86.7h70.93a40.22,40.22,0,0,1,11.67,1.45,16.68,16.68,0,0,1,7.63,4.59,18.9,18.9,0,0,1,4.23,8.31,50.45,50.45,0,0,1,1.33,12.47v5.29a44.38,44.38,0,0,1-1.58,13,16.21,16.21,0,0,1-5.11,7.93,20.18,20.18,0,0,1-9.09,4,73.74,73.74,0,0,1-13.63,1.07l32.18,28.65Zm4.29-57.05c0-4.2-.49-7.34-1.45-9.4s-3.31-3.09-7-3.09H406.5V525.1h53.25q4.54,0,6.5-2.27c1.3-1.52,2-4.17,2-8Z"/><path class="cls-1" d="M610.81,567.76,600,547.56H547.59l-10.86,20.2H517.3l47.58-86.83h17.79l47.58,86.83Zm-37-69.79-19.69,36h39.37Z"/><polygon class="cls-3" points="392.89 133.27 314.89 88.24 314.89 178.3 392.89 133.27"/><polygon class="cls-4" points="470.88 178.3 392.89 133.27 392.89 223.33 470.88 178.3"/><polygon class="cls-3" points="470.88 268.36 470.88 178.3 392.89 223.33 470.88 268.36"/><polygon class="cls-2" points="236.9 133.27 236.9 223.33 314.89 178.3 236.9 133.27"/><polygon class="cls-4" points="314.89 88.24 236.9 133.27 314.89 178.3 314.89 88.24"/><polygon class="cls-2" points="158.91 178.3 158.91 268.36 236.9 223.33 158.91 178.3"/><polygon class="cls-5" points="236.9 133.27 158.91 178.3 236.9 223.33 236.9 133.27"/><polygon class="cls-3" points="314.89 268.36 236.9 223.33 236.9 313.39 314.89 268.36"/><polygon class="cls-2" points="158.91 268.36 158.91 358.42 236.9 313.39 158.91 268.36"/><polygon class="cls-4" points="236.9 223.33 158.91 268.36 236.9 313.39 236.9 223.33"/><polygon class="cls-5" points="236.9 313.39 158.91 358.42 236.9 403.45 236.9 313.39"/><polygon class="cls-3" points="314.89 448.48 392.89 403.45 314.89 358.42 314.89 448.48"/><polygon class="cls-4" points="314.89 358.42 236.9 403.45 314.89 448.48 314.89 358.42"/><polygon class="cls-4" points="470.88 268.36 392.89 223.33 392.89 313.39 470.88 268.36"/><polygon class="cls-2" points="470.88 358.42 470.88 268.36 392.89 313.39 470.88 358.42"/><polygon class="cls-5" points="392.89 403.45 470.88 358.42 392.89 313.39 392.89 403.45"/><polygon class="cls-2" points="392.89 223.33 314.89 268.36 392.89 313.39 392.89 223.33"/><polygon class="cls-2" points="392.89 313.39 314.89 358.42 392.89 403.45 392.89 313.39"/></svg>