<svg xmlns="http://www.w3.org/2000/svg" width="81" height="48" viewBox="0 0 81 48">
  <metadata><?xpacket begin="﻿" id="W5M0MpCehiHzreSzNTczkc9d"?>
<x:xmpmeta xmlns:x="adobe:ns:meta/" x:xmptk="Adobe XMP Core 5.6-c138 79.159824, 2016/09/14-01:09:01        ">
   <rdf:RDF xmlns:rdf="http://www.w3.org/1999/02/22-rdf-syntax-ns#">
      <rdf:Description rdf:about=""/>
   </rdf:RDF>
</x:xmpmeta>
                                                                                                    
                                                                                                    
                                                                                                    
                                                                                                    
                                                                                                    
                                                                                                    
                                                                                                    
                                                                                                    
                                                                                                    
                                                                                                    
                                                                                                    
                                                                                                    
                                                                                                    
                                                                                                    
                                                                                                    
                                                                                                    
                                                                                                    
                                                                                                    
                                                                                                    
                                                                                                    
                           
<?xpacket end="w"?></metadata>
<defs>
    <style>
      .cls-1 {
        fill: #c96466;
        fill-rule: evenodd;
      }
    </style>
  </defs>
  <path id="Rectangle_34_copy_6" data-name="Rectangle 34 copy 6" class="cls-1" d="M806,1675h26v43H806v-43Zm2,2h22v39H808v-39Zm7-7h8v2h-8v-2Zm-2,23h12v2H813v-2Zm0,8h12v2H813v-2Zm10,2v-9h2v9h-2Zm-10,0v-9h2v9h-2Zm8-8v-7h2v7h-2Zm-6,0v-7h2v7h-2Zm3,13v-7h2v7h-2Z" transform="translate(-751 -1670)"/>
  <path id="Rectangle_34_copy_2" data-name="Rectangle 34 copy 2" class="cls-1" d="M753,1676h2v40h-2v-40Zm16,0h2v40h-2v-40Zm15,0h2v40h-2v-40Zm-33,9h6v2h-6v-2Zm16,11h6v2h-6v-2Zm15-5h6v2h-6v-2Z" transform="translate(-751 -1670)"/>
</svg>
